<?xml version="1.0" encoding="utf-8"?>
<!-- Generator: Adobe Illustrator 23.0.4, SVG Export Plug-In . SVG Version: 6.00 Build 0)  -->
<svg version="1.1" id="Layer_1" focusable="false" xmlns="http://www.w3.org/2000/svg" xmlns:xlink="http://www.w3.org/1999/xlink"
	 x="0px" y="0px" viewBox="0 0 576 512" style="enable-background:new 0 0 576 512;" xml:space="preserve">
<style type="text/css">
	.st0{fill:#FFFFFF;}
</style>
<path class="st0" d="M552,64H112c-20.9,0-38.6,13.4-45.2,32H24c-13.3,0-24,10.7-24,24v272c0,30.9,25.1,56,56,56h496
	c13.3,0,24-10.7,24-24V88C576,74.7,565.3,64,552,64z M48,392V144h16v248c0,4.4-3.6,8-8,8S48,396.4,48,392z M528,400H111.4
	c0.4-2.6,0.6-5.3,0.6-8V112h416V400z M172,280h136c6.6,0,12-5.4,12-12v-96c0-6.6-5.4-12-12-12H172c-6.6,0-12,5.4-12,12v96
	C160,274.6,165.4,280,172,280z M200,200h80v40h-80V200z M160,340v-24c0-6.6,5.4-12,12-12h136c6.6,0,12,5.4,12,12v24
	c0,6.6-5.4,12-12,12H172C165.4,352,160,346.6,160,340z M352,340v-24c0-6.6,5.4-12,12-12h104c6.6,0,12,5.4,12,12v24
	c0,6.6-5.4,12-12,12H364C357.4,352,352,346.6,352,340z M352,196v-24c0-6.6,5.4-12,12-12h104c6.6,0,12,5.4,12,12v24
	c0,6.6-5.4,12-12,12H364C357.4,208,352,202.6,352,196z M352,268v-24c0-6.6,5.4-12,12-12h104c6.6,0,12,5.4,12,12v24
	c0,6.6-5.4,12-12,12H364C357.4,280,352,274.6,352,268z"/>
</svg>
