<?xml version="1.0" encoding="utf-8"?>
<!-- Generator: Adobe Illustrator 23.0.4, SVG Export Plug-In . SVG Version: 6.00 Build 0)  -->
<svg version="1.1" id="Layer_1" focusable="false" xmlns="http://www.w3.org/2000/svg" xmlns:xlink="http://www.w3.org/1999/xlink"
	 x="0px" y="0px" viewBox="0 0 512 512" style="enable-background:new 0 0 512 512;" xml:space="preserve">
<style type="text/css">
	.st0{fill:#FFFFFF;}
</style>
<path class="st0" d="M304,416h-64c-8.8,0-16,7.2-16,16v32c0,8.8,7.2,16,16,16h64c8.8,0,16-7.2,16-16v-32
	C320,423.2,312.8,416,304,416z"/>
<path class="st0" d="M176,352h-48V48c0-8.8-7.2-16-16-16H80c-8.8,0-16,7.2-16,16v304H16c-14.2,0-21.4,17.2-11.3,27.3l80,96
	c6.2,6.2,16.4,6.2,22.6,0l80-96C197.4,369.3,190.2,352,176,352z"/>
<path class="st0" d="M432,160H240c-8.8,0-16,7.2-16,16v32c0,8.8,7.2,16,16,16h192c8.8,0,16-7.2,16-16v-32
	C448,167.2,440.8,160,432,160z"/>
<path class="st0" d="M368,288H240c-8.8,0-16,7.2-16,16v32c0,8.8,7.2,16,16,16h128c8.8,0,16-7.2,16-16v-32
	C384,295.2,376.8,288,368,288z"/>
<path class="st0" d="M496,32H240c-8.8,0-16,7.2-16,16v32c0,8.8,7.2,16,16,16h256c8.8,0,16-7.2,16-16V48C512,39.2,504.8,32,496,32z"
	/>
</svg>
