<svg width="297" height="98" viewBox="0 0 297 98" fill="none" xmlns="http://www.w3.org/2000/svg">
<g clip-path="url(#clip0_594_1226)">
<path d="M201.175 11.8421H170.579C169.15 11.8421 168.214 12.2378 167.565 12.8904C166.904 13.5788 166.506 14.5401 166.506 15.9271C166.506 17.3386 166.905 18.287 167.546 18.9437C168.19 19.5597 169.133 19.9439 170.579 19.9439H189.338L189.357 19.9443C190.486 19.9697 191.66 20.1209 192.875 20.3888C194.127 20.6419 195.357 21.0435 196.562 21.5879C197.801 22.1367 198.968 22.8314 200.064 23.6671L200.171 23.7473C201.266 24.5764 202.224 25.5661 203.049 26.7066L203.132 26.8202C203.989 27.999 204.655 29.329 205.139 30.7972C205.651 32.3513 205.895 34.0709 205.895 35.939C205.895 37.8145 205.637 39.5499 205.098 41.1292C204.601 42.6315 203.926 43.9889 203.062 45.1877C202.203 46.3792 201.187 47.4051 200.014 48.2555C198.893 49.0681 197.722 49.7408 196.5 50.2675C195.291 50.7887 194.05 51.1759 192.778 51.4262L192.778 51.4261C191.558 51.6708 190.38 51.798 189.248 51.798H141.94L148.675 39.9559H189.248C190.726 39.9559 191.654 39.5574 192.268 38.9348L192.275 38.9282L192.282 38.9217C192.951 38.2596 193.357 37.3213 193.357 35.939C193.357 35.276 193.25 34.7042 193.057 34.208C192.864 33.7104 192.592 33.2994 192.245 32.9564L192.232 32.9433L192.219 32.9297C191.914 32.6125 191.519 32.3509 191.001 32.1554L190.993 32.1522L190.984 32.1487C190.506 31.9618 189.935 31.854 189.248 31.854H154.883C154.372 31.854 153.853 31.8285 153.326 31.7786L160.816 18.6076H150.462L158.558 0H201.175V11.8421Z" fill="#E57D00"/>
<path d="M102.976 19.9439H131.86V0L142.927 0L136.758 27.0505H145.894L145.303 29.1271C145.284 29.1152 145.265 29.1034 145.247 29.0915V29.326L138.849 51.798H131.86V31.854H102.976V51.798H90.4377V0H102.976V19.9439Z" fill="white"/>
<path d="M33.8785 70.0087V98.0457H29.5139V85.8766H16.1612V98.0457H11.7966V70.0087H16.1612V82.0298H29.5139V70.0087H33.8785ZM60.2093 90.5001H48.706L46.0059 98.0457H41.5674L51.924 69.6758H57.0284L67.422 98.0457H62.9834L60.2093 90.5001ZM58.8038 86.6533L54.4762 74.6692L50.1116 86.6533H58.8038ZM75.0751 70.0087H79.4396V98.0457H75.0751V70.0087ZM105.529 94.1989V98.0457H89.8096V70.0087H94.1742V94.1989H105.529ZM131.252 94.3838V98.0457H113.683V70.0087H131.067V73.6705H118.047V82.1038H129.218V85.7656H118.047V94.3838H131.252ZM148.443 98.6745C144.793 98.6745 141.538 97.9963 138.678 96.6401V92.6084C141.588 94.1373 144.843 94.9017 148.443 94.9017C150.342 94.9017 151.735 94.5195 152.622 93.755C153.51 92.9906 153.954 91.9796 153.954 90.722C153.954 89.5137 153.547 88.6014 152.733 87.9849C151.92 87.3684 150.687 86.8383 149.035 86.3944L146.519 85.6916C145.089 85.2725 143.856 84.7916 142.821 84.2491C141.785 83.7066 140.91 82.9175 140.195 81.8819C139.504 80.8216 139.159 79.453 139.159 77.7762C139.159 75.0638 139.96 73.0048 141.563 71.5992C143.166 70.1937 145.422 69.4909 148.332 69.4909C150.083 69.4909 151.611 69.6512 152.918 69.9717C154.25 70.2676 155.594 70.7485 156.95 71.4143V75.335C154.336 73.9541 151.464 73.2637 148.332 73.2637C145.126 73.2637 143.523 74.6692 143.523 77.4803C143.548 78.7132 143.918 79.6256 144.633 80.2174C145.373 80.7846 146.569 81.2901 148.221 81.7339L150.773 82.4367C152.302 82.8559 153.597 83.3491 154.657 83.9162C155.742 84.4834 156.617 85.3094 157.283 86.3944C157.973 87.4547 158.319 88.848 158.319 90.5741C158.294 93.0893 157.406 95.0743 155.656 96.5291C153.905 97.9593 151.501 98.6745 148.443 98.6745ZM185.778 73.8555H177.53V98.0457H173.165V73.8555H164.917V70.0087H185.778V73.8555ZM205.735 98.6745C202.801 98.6745 200.31 98.0457 198.264 96.7881C196.217 95.5058 194.676 93.7674 193.64 91.5727C192.605 89.3535 192.087 86.8506 192.087 84.0642C192.087 81.3271 192.605 78.8612 193.64 76.6666C194.676 74.4719 196.217 72.7335 198.264 71.4513C200.31 70.1443 202.801 69.4909 205.735 69.4909C208.645 69.4909 211.123 70.1443 213.17 71.4513C215.217 72.7335 216.758 74.4843 217.793 76.7036C218.829 78.8982 219.347 81.3517 219.347 84.0642C219.347 86.8506 218.829 89.3535 217.793 91.5727C216.758 93.7674 215.217 95.5058 213.17 96.7881C211.123 98.0457 208.645 98.6745 205.735 98.6745ZM205.735 94.9017C207.659 94.9017 209.298 94.4332 210.655 93.4961C212.036 92.5344 213.084 91.2275 213.799 89.5754C214.514 87.9233 214.871 86.0492 214.871 83.9532C214.871 81.9559 214.514 80.1434 213.799 78.516C213.084 76.8885 212.036 75.6062 210.655 74.6692C209.274 73.7322 207.634 73.2637 205.735 73.2637C203.763 73.2637 202.086 73.7445 200.705 74.7062C199.349 75.6432 198.313 76.9255 197.598 78.553C196.907 80.1804 196.562 82.0175 196.562 84.0642C196.562 86.1355 196.907 87.9972 197.598 89.6494C198.313 91.2768 199.349 92.5591 200.705 93.4961C202.086 94.4332 203.763 94.9017 205.735 94.9017ZM237.096 86.6164H232.251V98.0457H227.886V70.0087H238.095C244.457 70.0087 247.638 72.7828 247.638 78.331C247.638 80.4763 247.132 82.2148 246.121 83.5463C245.135 84.8779 243.643 85.778 241.646 86.2465L248.932 98.0457H244.013L237.096 86.6164ZM232.251 82.8436H238.095C239.821 82.8436 241.103 82.4614 241.942 81.6969C242.78 80.9325 243.199 79.7736 243.199 78.2201C243.199 76.6666 242.78 75.5446 241.942 74.8542C241.103 74.1391 239.821 73.7815 238.095 73.7815H232.251V82.8436ZM284.213 70.0087V98.0457H279.849V76.4446L271.859 87.726H269.603L261.651 76.4816V98.0457H257.286V70.0087H262.168L270.75 82.2148L279.331 70.0087H284.213Z" fill="white"/>
</g>
<defs>
<clipPath id="clip0_594_1226">
<rect width="297" height="98" fill="white"/>
</clipPath>
</defs>
</svg>
