<?xml version="1.0" encoding="utf-8"?>
<!-- Generator: Adobe Illustrator 23.0.4, SVG Export Plug-In . SVG Version: 6.00 Build 0)  -->
<svg version="1.1" id="Layer_1" xmlns="http://www.w3.org/2000/svg" xmlns:xlink="http://www.w3.org/1999/xlink" x="0px" y="0px"
	 viewBox="0 0 204 144" style="enable-background:new 0 0 204 144;" xml:space="preserve">
<style type="text/css">
	.st0{fill:#FFFFFF;}
	.st1{fill:#C38C33;}
</style>
<path class="st0" d="M51,9H38v80.3c0,22.1-6.8,31.1-23.3,31.1c-4.2,0-8.6-0.7-12.4-2l-2,10.8c4,1.5,10.6,2.5,15.8,2.5
	c24,0,34.9-13.5,34.9-41.1V9z"/>
<rect x="64" y="9" class="st0" width="12" height="121"/>
<g>
	<polygon class="st0" points="153,9 141,9 141,122.2 153,109 	"/>
</g>
<rect x="64" y="63" class="st0" width="89" height="12"/>
<polygon class="st1" points="203.8,63 140.5,63 187.6,-0.3 109.8,75 172.6,75 122,144.5 "/>
<rect x="141" y="9" class="st0" width="12" height="54"/>
</svg>
