<?xml version="1.0" encoding="utf-8"?>
<!-- Generator: Adobe Illustrator 23.0.4, SVG Export Plug-In . SVG Version: 6.00 Build 0)  -->
<svg version="1.1" id="Layer_1" xmlns="http://www.w3.org/2000/svg" xmlns:xlink="http://www.w3.org/1999/xlink" x="0px" y="0px"
	 viewBox="0 0 132 18" style="enable-background:new 0 0 132 18;" xml:space="preserve">
<style type="text/css">
	.st0{fill:#FFFFFF;}
</style>
<g>
	<path class="st0" d="M5.5,0.9h1.2v11.2c0,4.1-2,5.3-4.4,5.3c-0.7,0-1.6-0.2-2-0.4l0.2-0.9c0.4,0.2,1,0.3,1.7,0.3
		c2.1,0,3.2-1,3.2-4.5V0.9z"/>
	<path class="st0" d="M11.5,0.9v7.1h8.9V0.9h1.1v16.2h-1.1V9h-8.9v8.1h-1.1V0.9H11.5z"/>
	<path class="st0" d="M27.4,11.5l-2,5.7h-1.2l5.9-16.2h1.1L37,17.1h-1.2l-2-5.7H27.4z M33.4,10.5l-2-5.4c-0.4-1.1-0.6-1.9-0.8-2.9h0
		C30.3,3.2,30.1,4,29.7,5l-2,5.4H33.4z"/>
	<path class="st0" d="M40.6,0.9v16.2h-1.1V0.9H40.6z"/>
	<path class="st0" d="M44.6,0.9h1.1v15.2h7.2v1h-8.4V0.9z"/>
	<path class="st0" d="M62.9,9.1h-6.5v7.1h7.2v1h-8.4V0.9h8v1h-6.9v6.2h6.5V9.1z"/>
	<path class="st0" d="M66,15.3c0.9,0.6,2.2,1.1,3.6,1.1c2.4,0,3.9-1.4,3.9-3.4c0-1.8-0.9-2.9-3.3-3.8C67.5,8.3,66,7,66,4.8
		c0-2.4,2-4.1,4.7-4.1c1.5,0,2.7,0.4,3.2,0.8l-0.4,1C73,2.1,72,1.6,70.6,1.6c-2.6,0-3.5,1.7-3.5,3c0,1.8,1,2.7,3.4,3.6
		c2.7,1.1,4.1,2.3,4.1,4.7c0,2.4-1.7,4.4-5.1,4.4c-1.4,0-3-0.5-3.9-1.1L66,15.3z"/>
	<path class="st0" d="M80.7,1.9h-5.3v-1h11.7v1h-5.3v15.2h-1.2V1.9z"/>
	<path class="st0" d="M101.4,8.9c0,5.7-3.5,8.5-7.2,8.5c-4,0-7.1-3.1-7.1-8.2c0-5.3,3.2-8.5,7.2-8.5C98.5,0.7,101.4,3.9,101.4,8.9z
		 M88.3,9.2c0,3.6,2.1,7.3,6,7.3s6-3.5,6-7.5c0-3.4-1.9-7.3-5.9-7.3C90.2,1.6,88.3,5.4,88.3,9.2z"/>
	<path class="st0" d="M104.3,1.2c1-0.2,2.4-0.3,3.5-0.3c2.1,0,3.4,0.5,4.4,1.3c0.7,0.7,1.1,1.8,1.1,2.9c0,2.2-1.3,3.6-3.2,4.2v0
		c1.3,0.4,2.1,1.6,2.5,3.4c0.6,2.5,0.9,3.7,1.2,4.4h-1.2c-0.2-0.5-0.6-1.9-1-3.9c-0.5-2.3-1.5-3.4-3.6-3.5h-2.5v7.4h-1.1V1.2z
		 M105.4,8.8h2.6c2.5,0,4.1-1.4,4.1-3.5c0-2.5-1.8-3.5-4.4-3.5c-1.1,0-1.9,0.1-2.3,0.2V8.8z"/>
	<path class="st0" d="M130,9.4c-0.2-2.4-0.4-5.4-0.3-7.2h-0.1c-0.6,1.8-1.2,3.6-2.2,6l-3.4,8.8h-0.8l-3.2-8.6
		c-0.9-2.5-1.6-4.5-2.1-6.2h-0.1c0,1.9-0.1,4.7-0.3,7.4l-0.5,7.4H116l1.2-16.2h1.3l3.5,9.3c0.7,2.1,1.3,3.7,1.8,5.3h0
		c0.4-1.5,1-3.1,1.8-5.2l3.6-9.3h1.4l1.1,16.2h-1.1L130,9.4z"/>
</g>
</svg>
