<?xml version="1.0" encoding="utf-8"?>
<!-- Generator: Adobe Illustrator 23.0.4, SVG Export Plug-In . SVG Version: 6.00 Build 0)  -->
<svg version="1.1" id="Layer_1" focusable="false" xmlns="http://www.w3.org/2000/svg" xmlns:xlink="http://www.w3.org/1999/xlink"
	 x="0px" y="0px" viewBox="0 0 576 512" style="enable-background:new 0 0 576 512;" xml:space="preserve">
<style type="text/css">
	.st0{fill:#FFFFFF;}
	.st1{fill:#C38C33;}
</style>
<path class="st0" d="M160,448c-25.6,0-51.2-22.4-64-32c-64-44.8-83.2-60.8-96-70.4V480c0,17.7,14.3,32,32,32h256
	c17.7,0,32-14.3,32-32V345.6c-12.8,9.6-32,25.6-96,70.4C211.2,425.6,185.6,448,160,448z"/>
<path class="st0" d="M288,256H32c-17.7,0-32,14.3-32,32v16c25.6,19.2,22.4,19.2,115.2,86.4c9.6,6.4,28.8,25.6,44.8,25.6
	s35.2-19.2,44.8-22.4c92.8-67.2,89.6-67.2,115.2-86.4V288C320,270.3,305.7,256,288,256z"/>
<path class="st1" d="M544,160H224c-17.7,0-32,14.3-32,32v32h96c33.2,0,60.6,25.4,63.7,57.8l0.3-0.2V416h192c17.7,0,32-14.3,32-32
	V192C576,174.3,561.7,160,544,160z M512,288h-64v-64h64V288z"/>
<path class="st0" d="M160,192c0-35.3,28.7-64,64-64h224V32c0-17.7-14.3-32-32-32H96C78.3,0,64,14.3,64,32v192h96V192z"/>
</svg>
